<svg xmlns:dc="http://purl.org/dc/elements/1.1/" xmlns:cc="http://creativecommons.org/ns#" xmlns:rdf="http://www.w3.org/1999/02/22-rdf-syntax-ns#" xmlns:svg="http://www.w3.org/2000/svg" xmlns="http://www.w3.org/2000/svg" xmlns:sodipodi="http://sodipodi.sourceforge.net/DTD/sodipodi-0.dtd" xmlns:inkscape="http://www.inkscape.org/namespaces/inkscape" style="background: rgba(0, 0, 0, 0);" preserveAspectRatio="xMidYMid" version="1.1" id="svg27" sodipodi:docname="ahora si.svg" inkscape:version="0.92.5 (2060ec1f9f, 2020-04-08)" viewBox="14.34 34.34 474.1 86.9">
  <metadata id="metadata31">
    <rdf:RDF>
      <cc:Work rdf:about="">
        <dc:format>image/svg+xml</dc:format>
        <dc:type rdf:resource="http://purl.org/dc/dcmitype/StillImage"/>
        <dc:title/>
      </cc:Work>
    </rdf:RDF>
  </metadata>
  <sodipodi:namedview pagecolor="#ffffff" bordercolor="#666666" borderopacity="1" objecttolerance="10" gridtolerance="10" guidetolerance="10" inkscape:pageopacity="0" inkscape:pageshadow="2" inkscape:window-width="1920" inkscape:window-height="1009" id="namedview29" showgrid="false" inkscape:zoom="2.169087" inkscape:cx="396.41874" inkscape:cy="182.4192" inkscape:window-x="0" inkscape:window-y="0" inkscape:window-maximized="1" inkscape:current-layer="svg27"/>
  <defs id="defs17">
    <filter id="editing-extrusion" x="-100%" y="-100%" width="300%" height="300%">
      <feFlood result="color1" flood-color="#ffffff" id="feFlood2"/>
      <feConvolveMatrix order="1,1" divisor="1" kernelMatrix="1" in="SourceAlpha" result="extrude" id="feConvolveMatrix4"/>
      <feComposite in="color1" in2="extrude" result="comp-extrude" operator="in" id="feComposite6"/>
      <feOffset dx="0.5" dy="0.5" in="comp-extrude" result="offset-extrude" id="feOffset8"/>
      <feMerge id="feMerge14">
        <feMergeNode in="offset-extrude" id="feMergeNode10"/>
        <feMergeNode in="SourceGraphic" id="feMergeNode12"/>
      </feMerge>
    </filter>
  </defs>
  <g filter="url(#editing-extrusion)" id="g23">
    <g transform="translate(7.565866947174072, 118.45000553131104)" id="g21">
      <path d="M13.59-0.70L13.59-0.70L13.59-0.70Q12.51-0.97 12.14-1.53L12.14-1.53L12.14-1.53Q11.76-2.09 11.76-2.79L11.76-2.79L11.76-2.79Q11.76-2.95 11.79-3.01L11.79-3.01L11.79-3.01Q11.82-3.06 11.82-3.22L11.82-3.22L11.82-3.22Q12.25-9.02 12.76-15.39L12.76-15.39L12.76-15.39Q13.27-21.75 13.86-28.33L13.86-28.33L13.86-28.33Q14.45-34.91 15.04-41.46L15.04-41.46L15.04-41.46Q15.63-48.02 16.22-54.19L16.22-54.19L16.17-54.19L16.17-54.19Q15.95-54.19 14.96-53.85L14.96-53.85L14.96-53.85Q13.96-53.50 12.70-53.09L12.70-53.09L12.70-53.09Q11.44-52.69 10.15-52.37L10.15-52.37L10.15-52.37Q8.86-52.05 8.06-52.05L8.06-52.05L8.06-52.05Q7.36-52.05 7.06-52.58L7.06-52.58L7.06-52.58Q6.77-53.12 6.77-53.76L6.77-53.76L6.77-53.76Q6.77-54.25 6.93-54.68L6.93-54.68L6.93-54.68Q8.38-58.87 9.94-62.52L9.94-62.52L9.94-62.52Q11.49-66.17 13.05-70.04L13.05-70.04L13.05-70.04Q17.13-72.24 21.54-73.88L21.54-73.88L21.54-73.88Q25.94-75.52 30.43-76.62L30.43-76.62L30.43-76.62Q34.91-77.72 39.37-78.28L39.37-78.28L39.37-78.28Q43.83-78.85 48.02-78.85L48.02-78.85L48.02-78.85Q53.87-78.85 59.06-77.61L59.06-77.61L59.06-77.61Q64.24-76.38 68.08-73.88L68.08-73.88L68.08-73.88Q71.92-71.38 74.15-67.60L74.15-67.60L74.15-67.60Q76.38-63.81 76.38-58.71L76.38-58.71L76.38-58.71Q76.38-56.50 75.41-54.46L75.41-54.46L75.41-54.46Q74.44-52.42 72.91-50.57L72.91-50.57L72.91-50.57Q71.38-48.72 69.50-47.13L69.50-47.13L69.50-47.13Q67.62-45.55 65.80-44.26L65.80-44.26L65.80-44.26Q68.37-42.38 70.44-40.85L70.44-40.85L70.44-40.85Q72.51-39.32 73.96-37.65L73.96-37.65L73.96-37.65Q75.41-35.99 76.16-33.92L76.16-33.92L76.16-33.92Q76.91-31.85 76.91-28.90L76.91-28.90L76.91-28.90Q76.91-24.38 75.33-20.28L75.33-20.28L75.33-20.28Q73.75-16.17 70.98-12.65L70.98-12.65L70.98-12.65Q68.21-9.13 64.43-6.28L64.43-6.28L64.43-6.28Q60.64-3.44 56.21-1.42L56.21-1.42L56.21-1.42Q51.78 0.59 46.86 1.69L46.86 1.69L46.86 1.69Q41.95 2.79 36.95 2.79L36.95 2.79L36.95 2.79Q35.13 2.79 32.07 2.42L32.07 2.42L32.07 2.42Q29.00 2.04 25.65 1.53L25.65 1.53L25.65 1.53Q22.29 1.02 19.04 0.40L19.04 0.40L19.04 0.40Q15.79-0.21 13.59-0.70ZM38.35-59.62L38.35-59.62L38.35-59.62Q37.33-53.28 36.63-46.76L36.63-46.76L36.63-46.76Q35.93-40.23 35.42-34.08L35.42-34.08L35.42-34.08Q34.91-27.93 34.54-22.40L34.54-22.40L34.54-22.40Q34.16-16.87 33.78-12.51L33.78-12.51L33.78-12.51Q35.93-12.51 38.43-12.76L38.43-12.76L38.43-12.76Q40.93-13.00 43.40-13.59L43.40-13.59L43.40-13.59Q45.87-14.18 48.21-15.12L48.21-15.12L48.21-15.12Q50.54-16.06 52.31-17.46L52.31-17.46L52.31-17.46Q54.09-18.85 55.16-20.76L55.16-20.76L55.16-20.76Q56.24-22.67 56.24-25.14L56.24-25.14L56.24-25.14Q56.24-26.64 55.32-27.80L55.32-27.80L55.32-27.80Q54.41-28.95 52.99-29.78L52.99-29.78L52.99-29.78Q51.56-30.62 49.84-31.18L49.84-31.18L49.84-31.18Q48.13-31.74 46.49-32.09L46.49-32.09L46.49-32.09Q44.85-32.44 43.48-32.63L43.48-32.63L43.48-32.63Q42.11-32.82 41.41-32.92L41.41-32.92L41.41-32.92Q40.66-33.03 40.44-33.46L40.44-33.46L40.44-33.46Q40.23-33.89 40.23-34.54L40.23-34.54L40.23-34.54Q40.23-35.23 41.09-36.63L41.09-36.63L41.09-36.63Q41.95-38.03 43.45-40.44L43.45-40.44L45.71-44.04L45.71-44.04Q47.16-44.58 48.85-45.39L48.85-45.39L48.85-45.39Q50.54-46.19 51.99-47.24L51.99-47.24L51.99-47.24Q53.44-48.29 54.41-49.60L54.41-49.60L54.41-49.60Q55.38-50.92 55.38-52.48L55.38-52.48L55.38-52.48Q55.38-56.88 53.47-59.22L53.47-59.22L53.47-59.22Q51.56-61.55 47.96-61.55L47.96-61.55L47.96-61.55Q43.88-61.55 38.35-59.62ZM115.32-59.94L115.32-59.94L115.32-59.94Q120.42-59.94 124.58-58.03L124.58-58.03L124.58-58.03Q128.75-56.13 131.73-53.09L131.73-53.09L131.73-53.09Q134.71-50.06 136.32-46.30L136.32-46.30L136.32-46.30Q137.93-42.54 137.93-38.78L137.93-38.78L137.93-38.78Q137.93-35.45 135.89-32.09L135.89-32.09L135.89-32.09Q133.85-28.74 130.17-26.05L130.17-26.05L130.17-26.05Q126.49-23.36 121.33-21.70L121.33-21.70L121.33-21.70Q116.18-20.03 110-20.03L110-20.03L110-20.03Q106.78-20.03 103.23-20.68L103.23-20.68L103.23-20.68Q103.45-18.37 104.58-16.70L104.58-16.70L104.58-16.70Q105.70-15.04 107.42-13.96L107.42-13.96L107.42-13.96Q109.14-12.89 111.32-12.38L111.32-12.38L111.32-12.38Q113.49-11.87 115.80-11.87L115.80-11.87L115.80-11.87Q118.38-11.87 120.77-12.33L120.77-12.33L120.77-12.33Q123.16-12.78 125.36-13.54L125.36-13.54L125.36-13.54Q127.56-14.29 129.60-15.20L129.60-15.20L129.60-15.20Q131.65-16.11 133.47-17.03L133.47-17.03L133.47-17.03Q133.96-17.13 134.30-17.21L134.30-17.21L134.30-17.21Q134.65-17.29 134.98-17.29L134.98-17.29L134.98-17.29Q134.98-17.29 134.95-16.44L134.95-16.44L134.95-16.44Q134.92-15.58 134.92-14.02L134.92-14.02L134.92-14.02Q134.92-12.46 134.90-10.26L134.90-10.26L134.90-10.26Q134.87-8.06 134.81-5.37L134.81-5.37L134.81-5.37Q134.98-5.10 135.03-4.83L135.03-4.83L135.03-4.83Q135.08-4.57 135.08-4.40L135.08-4.40L135.08-4.40Q135.08-3.76 133.90-3.01L133.90-3.01L133.90-3.01Q132.72-2.26 130.81-1.45L130.81-1.45L130.81-1.45Q128.91-0.64 126.46 0.11L126.46 0.11L126.46 0.11Q124.02 0.86 121.49 1.48L121.49 1.48L121.49 1.48Q118.97 2.09 116.61 2.44L116.61 2.44L116.61 2.44Q114.24 2.79 112.47 2.79L112.47 2.79L112.47 2.79Q106.67 2.79 101.22 0.78L101.22 0.78L101.22 0.78Q95.77-1.24 91.55-5.00L91.55-5.00L91.55-5.00Q87.33-8.75 84.81-14.13L84.81-14.13L84.81-14.13Q82.29-19.50 82.29-26.21L82.29-26.21L82.29-26.21Q82.29-33.25 84.70-39.40L84.70-39.40L84.70-39.40Q87.12-45.55 91.50-50.11L91.50-50.11L91.50-50.11Q95.87-54.68 101.94-57.31L101.94-57.31L101.94-57.31Q108.01-59.94 115.32-59.94ZM114.67-45.65L114.67-45.65L114.67-45.65Q112.47-45.65 110.62-44.71L110.62-44.71L110.62-44.71Q108.76-43.77 107.23-42.03L107.23-42.03L107.23-42.03Q105.70-40.28 104.58-37.84L104.58-37.84L104.58-37.84Q103.45-35.40 102.75-32.44L102.75-32.44L102.75-32.44Q108.28-33.41 111.93-34.48L111.93-34.48L111.93-34.48Q115.59-35.56 117.79-36.66L117.79-36.66L117.79-36.66Q119.99-37.76 120.90-38.86L120.90-38.86L120.90-38.86Q121.82-39.96 121.82-40.98L121.82-40.98L121.82-40.98Q121.82-41.95 121.09-42.81L121.09-42.81L121.09-42.81Q120.37-43.67 119.29-44.31L119.29-44.31L119.29-44.31Q118.22-44.96 116.96-45.31L116.96-45.31L116.96-45.31Q115.69-45.65 114.67-45.65ZM176.66-59.94L176.66-59.94L176.66-59.94Q181.76-59.94 185.92-58.03L185.92-58.03L185.92-58.03Q190.08-56.13 193.06-53.09L193.06-53.09L193.06-53.09Q196.04-50.06 197.66-46.30L197.66-46.30L197.66-46.30Q199.27-42.54 199.27-38.78L199.27-38.78L199.27-38.78Q199.27-35.45 197.23-32.09L197.23-32.09L197.23-32.09Q195.19-28.74 191.51-26.05L191.51-26.05L191.51-26.05Q187.83-23.36 182.67-21.70L182.67-21.70L182.67-21.70Q177.51-20.03 171.34-20.03L171.34-20.03L171.34-20.03Q168.12-20.03 164.57-20.68L164.57-20.68L164.57-20.68Q164.79-18.37 165.91-16.70L165.91-16.70L165.91-16.70Q167.04-15.04 168.76-13.96L168.76-13.96L168.76-13.96Q170.48-12.89 172.65-12.38L172.65-12.38L172.65-12.38Q174.83-11.87 177.14-11.87L177.14-11.87L177.14-11.87Q179.72-11.87 182.11-12.33L182.11-12.33L182.11-12.33Q184.50-12.78 186.70-13.54L186.70-13.54L186.70-13.54Q188.90-14.29 190.94-15.20L190.94-15.20L190.94-15.20Q192.98-16.11 194.81-17.03L194.81-17.03L194.81-17.03Q195.29-17.13 195.64-17.21L195.64-17.21L195.64-17.21Q195.99-17.29 196.31-17.29L196.31-17.29L196.31-17.29Q196.31-17.29 196.29-16.44L196.29-16.44L196.29-16.44Q196.26-15.58 196.26-14.02L196.26-14.02L196.26-14.02Q196.26-12.46 196.23-10.26L196.23-10.26L196.23-10.26Q196.21-8.06 196.15-5.37L196.15-5.37L196.15-5.37Q196.31-5.10 196.37-4.83L196.37-4.83L196.37-4.83Q196.42-4.57 196.42-4.40L196.42-4.40L196.42-4.40Q196.42-3.76 195.24-3.01L195.24-3.01L195.24-3.01Q194.06-2.26 192.15-1.45L192.15-1.45L192.15-1.45Q190.24-0.64 187.80 0.11L187.80 0.11L187.80 0.11Q185.36 0.86 182.83 1.48L182.83 1.48L182.83 1.48Q180.31 2.09 177.94 2.44L177.94 2.44L177.94 2.44Q175.58 2.79 173.81 2.79L173.81 2.79L173.81 2.79Q168.01 2.79 162.56 0.78L162.56 0.78L162.56 0.78Q157.10-1.24 152.89-5.00L152.89-5.00L152.89-5.00Q148.67-8.75 146.15-14.13L146.15-14.13L146.15-14.13Q143.62-19.50 143.62-26.21L143.62-26.21L143.62-26.21Q143.62-33.25 146.04-39.40L146.04-39.40L146.04-39.40Q148.46-45.55 152.83-50.11L152.83-50.11L152.83-50.11Q157.21-54.68 163.28-57.31L163.28-57.31L163.28-57.31Q169.35-59.94 176.66-59.94ZM176.01-45.65L176.01-45.65L176.01-45.65Q173.81-45.65 171.96-44.71L171.96-44.71L171.96-44.71Q170.10-43.77 168.57-42.03L168.57-42.03L168.57-42.03Q167.04-40.28 165.91-37.84L165.91-37.84L165.91-37.84Q164.79-35.40 164.09-32.44L164.09-32.44L164.09-32.44Q169.62-33.41 173.27-34.48L173.27-34.48L173.27-34.48Q176.92-35.56 179.13-36.66L179.13-36.66L179.13-36.66Q181.33-37.76 182.24-38.86L182.24-38.86L182.24-38.86Q183.15-39.96 183.15-40.98L183.15-40.98L183.15-40.98Q183.15-41.95 182.43-42.81L182.43-42.81L182.43-42.81Q181.70-43.67 180.63-44.31L180.63-44.31L180.63-44.31Q179.56-44.96 178.29-45.31L178.29-45.31L178.29-45.31Q177.03-45.65 176.01-45.65ZM253.25-60.37L249.92-43.72L249.92-43.72Q248.79-43.83 247.39-43.96L247.39-43.96L247.39-43.96Q246.00-44.10 244.44-44.10L244.44-44.10L244.44-44.10Q242.08-44.10 239.63-43.69L239.63-43.69L239.63-43.69Q237.19-43.29 235.09-42.11L235.09-42.11L235.09-42.11Q233.00-40.93 231.49-38.86L231.49-38.86L231.49-38.86Q229.99-36.79 229.56-33.52L229.56-33.52L229.56-33.52Q229.18-29.54 228.94-26.99L228.94-26.99L228.94-26.99Q228.70-24.44 228.59-22.80L228.59-22.80L228.59-22.80Q228.49-21.16 228.41-20.17L228.41-20.17L228.41-20.17Q228.33-19.17 228.27-18.32L228.27-18.32L228.27-18.32Q228.27-18.10 228.19-17.13L228.19-17.13L228.19-17.13Q228.11-16.17 227.95-14.88L227.95-14.88L227.95-14.88Q227.79-13.59 227.65-12.08L227.65-12.08L227.65-12.08Q227.52-10.58 227.36-9.29L227.36-9.29L227.36-9.29Q227.20-8.00 227.12-7.04L227.12-7.04L227.12-7.04Q227.04-6.07 227.04-5.85L227.04-5.85L227.04-5.85Q227.04-5.42 227.06-5.13L227.06-5.13L227.06-5.13Q227.09-4.83 227.09-4.57L227.09-4.57L227.09-4.57Q227.09-4.14 226.69-3.84L226.69-3.84L226.69-3.84Q226.28-3.54 224.89-3.17L224.89-3.17L210.65 1.93L210.65 1.93Q210.06 2.15 209.10 2.47L209.10 2.47L209.10 2.47Q208.13 2.79 207.22 2.79L207.22 2.79L207.22 2.79Q206.46 2.79 205.90 2.42L205.90 2.42L205.90 2.42Q205.34 2.04 205.34 1.13L205.34 1.13L209.96-52.10L209.96-52.10Q210.12-53.87 210.36-54.54L210.36-54.54L210.36-54.54Q210.60-55.21 211.57-55.43L211.57-55.43L211.57-55.43Q216.46-56.40 221.67-57.39L221.67-57.39L221.67-57.39Q226.88-58.38 231.76-59.94L231.76-59.94L231.76-59.94Q232.19-59.94 232.27-59.81L232.27-59.81L232.27-59.81Q232.35-59.67 232.35-59.40L232.35-59.40L232.35-59.40Q232.35-59.30 232.33-59.08L232.33-59.08L232.33-59.08Q232.30-58.87 232.17-58.12L232.17-58.12L232.17-58.12Q232.03-57.36 231.79-55.83L231.79-55.83L231.79-55.83Q231.55-54.30 231.12-51.56L231.12-51.56L231.12-51.56Q233.59-53.50 236.57-55.11L236.57-55.11L236.57-55.11Q239.55-56.72 242.56-57.87L242.56-57.87L242.56-57.87Q245.57-59.03 248.36-59.70L248.36-59.70L248.36-59.70Q251.15-60.37 253.25-60.37L253.25-60.37ZM317.70-18.32L318.83-30.56L318.83-30.56Q318.99-32.28 319.18-34.16L319.18-34.16L319.18-34.16Q319.37-36.04 319.63-38.08L319.63-38.08L319.63-38.08Q318.40-41.30 316.14-43.32L316.14-43.32L316.14-43.32Q313.89-45.33 310.50-45.33L310.50-45.33L310.50-45.33Q307.17-45.33 304.86-43.43L304.86-43.43L304.86-43.43Q302.55-41.52 301.16-38.73L301.16-38.73L301.16-38.73Q299.76-35.93 299.14-32.84L299.14-32.84L299.14-32.84Q298.53-29.76 298.53-27.39L298.53-27.39L298.53-27.39Q298.53-24.49 298.87-21.65L298.87-21.65L298.87-21.65Q299.22-18.80 300.00-16.49L300.00-16.49L300.00-16.49Q300.78-14.18 302.07-12.76L302.07-12.76L302.07-12.76Q303.36-11.33 305.29-11.33L305.29-11.33L305.29-11.33Q310.02-11.49 312.97-13.48L312.97-13.48L312.97-13.48Q315.93-15.47 317.70-18.32L317.70-18.32ZM344.50-81.05L337.57-5.42L337.57-5.42Q337.57-5.32 337.55-5.18L337.55-5.18L337.55-5.18Q337.52-5.05 337.52-4.94L337.52-4.94L337.52-4.94Q337.52-4.67 337.55-4.51L337.55-4.51L337.55-4.51Q337.57-4.35 337.57-4.19L337.57-4.19L337.57-4.19Q337.57-3.71 337.22-3.41L337.22-3.41L337.22-3.41Q336.88-3.12 335.42-2.74L335.42-2.74L321.03 1.93L321.03 1.93Q320.44 2.15 319.47 2.47L319.47 2.47L319.47 2.47Q318.51 2.79 317.59 2.79L317.59 2.79L317.59 2.79Q316.84 2.79 316.28 2.42L316.28 2.42L316.28 2.42Q315.71 2.04 315.71 1.02L315.71 1.02L315.71 1.02Q315.71 0.05 315.74-0.54L315.74-0.54L315.74-0.54Q315.77-1.13 315.79-1.64L315.79-1.64L315.79-1.64Q315.82-2.15 315.90-2.74L315.90-2.74L315.90-2.74Q315.98-3.33 316.09-4.30L316.09-4.30L316.09-4.30Q312.06-1.07 307.79 0.86L307.79 0.86L307.79 0.86Q303.52 2.79 298.79 2.79L298.79 2.79L298.79 2.79Q293.64 2.79 289.64 0.35L289.64 0.35L289.64 0.35Q285.63-2.09 282.90-6.20L282.90-6.20L282.90-6.20Q280.16-10.31 278.73-15.60L278.73-15.60L278.73-15.60Q277.31-20.89 277.31-26.64L277.31-26.64L277.31-26.64Q277.31-34.11 279.75-40.26L279.75-40.26L279.75-40.26Q282.20-46.41 286.39-50.78L286.39-50.78L286.39-50.78Q290.58-55.16 296.16-57.55L296.16-57.55L296.16-57.55Q301.75-59.94 308.03-59.94L308.03-59.94L308.03-59.94Q311.42-59.94 314.50-58.17L314.50-58.17L314.50-58.17Q317.59-56.40 320.33-53.60L320.33-53.60L320.33-53.60Q320.49-56.24 320.71-59.32L320.71-59.32L320.71-59.32Q320.92-62.41 321.14-65.61L321.14-65.61L321.14-65.61Q321.35-68.80 321.57-71.92L321.57-71.92L321.57-71.92Q321.78-75.03 321.94-77.61L321.94-77.61L321.94-77.61Q321.94-78.10 322.29-78.39L322.29-78.39L322.29-78.39Q322.64-78.69 324.09-79.06L324.09-79.06L339.18-82.66L339.18-82.66Q339.78-82.77 340.74-83.14L340.74-83.14L340.74-83.14Q341.71-83.52 342.62-83.52L342.62-83.52L342.62-83.52Q343.32-83.52 343.94-83.20L343.94-83.20L343.94-83.20Q344.56-82.88 344.56-81.96L344.56-81.96L344.56-81.96Q344.56-81.86 344.53-81.51L344.53-81.51L344.53-81.51Q344.50-81.16 344.50-81.05L344.50-81.05ZM372.00-36.63L372.00-36.63L372.00-36.63Q372.00-32.76 372.83-28.87L372.83-28.87L372.83-28.87Q373.67-24.98 375.60-21.86L375.60-21.86L375.60-21.86Q377.53-18.75 380.70-16.81L380.70-16.81L380.70-16.81Q383.87-14.88 388.54-14.88L388.54-14.88L388.54-14.88Q392.14-15.09 394.86-16.35L394.86-16.35L394.86-16.35Q397.57-17.62 399.53-19.63L399.53-19.63L399.53-19.63Q401.49-21.65 402.78-24.25L402.78-24.25L402.78-24.25Q404.07-26.86 404.82-29.73L404.82-29.73L404.82-29.73Q405.57-32.60 405.87-35.61L405.87-35.61L405.87-35.61Q406.16-38.62 406.16-41.41L406.16-41.41L406.16-41.41Q406.16-45.22 405.14-48.80L405.14-48.80L405.14-48.80Q404.12-52.37 402.08-55.11L402.08-55.11L402.08-55.11Q400.04-57.85 397.00-59.51L397.00-59.51L397.00-59.51Q393.97-61.18 389.94-61.18L389.94-61.18L389.94-61.18Q386.77-61.18 384.22-60.00L384.22-60.00L384.22-60.00Q381.67-58.81 379.68-56.85L379.68-56.85L379.68-56.85Q377.70-54.89 376.27-52.34L376.27-52.34L376.27-52.34Q374.85-49.79 373.91-47.08L373.91-47.08L373.91-47.08Q372.97-44.37 372.51-41.65L372.51-41.65L372.51-41.65Q372.06-38.94 372.00-36.63ZM382.48 2.79L382.48 2.79L382.48 2.79Q374.42 2.79 368.08-0.21L368.08-0.21L368.08-0.21Q361.74-3.22 357.37-8.35L357.37-8.35L357.37-8.35Q352.99-13.48 350.65-20.22L350.65-20.22L350.65-20.22Q348.32-26.96 348.32-34.48L348.32-34.48L348.32-34.48Q348.32-42.92 350.71-50.03L350.71-50.03L350.71-50.03Q353.10-57.15 357.39-62.65L357.39-62.65L357.39-62.65Q361.69-68.16 367.62-71.95L367.62-71.95L367.62-71.95Q373.56-75.73 380.65-77.56L380.65-77.56L380.65-77.56Q381.29-77.56 381.64-78.58L381.64-78.58L381.64-78.58Q381.99-79.60 382.26-80.83L382.26-80.83L382.26-80.83Q382.53-82.07 382.91-83.09L382.91-83.09L382.91-83.09Q383.28-84.11 383.98-84.11L383.98-84.11L383.98-84.11Q394.40-83.04 402.72-80.43L402.72-80.43L402.72-80.43Q411.05-77.83 416.85-72.99L416.85-72.99L416.85-72.99Q422.65-68.16 425.74-60.77L425.74-60.77L425.74-60.77Q428.83-53.39 428.83-42.75L428.83-42.75L428.83-42.75Q428.83-35.93 427.16-29.92L427.16-29.92L427.16-29.92Q425.50-23.90 422.49-18.83L422.49-18.83L422.49-18.83Q419.48-13.75 415.27-9.75L415.27-9.75L415.27-9.75Q411.05-5.75 405.89-2.95L405.89-2.95L405.89-2.95Q400.74-0.16 394.80 1.32L394.80 1.32L394.80 1.32Q388.87 2.79 382.48 2.79ZM474.05-41.41L464.06-41.41L464.06-41.41Q463.31-35.77 462.64-30.16L462.64-30.16L462.64-30.16Q461.97-24.55 461.81-19.66L461.81-19.66L461.81-19.66Q461.81-17.56 462.13-16.17L462.13-16.17L462.13-16.17Q462.45-14.77 463.07-13.96L463.07-13.96L463.07-13.96Q463.69-13.16 464.55-12.81L464.55-12.81L464.55-12.81Q465.41-12.46 466.48-12.46L466.48-12.46L466.48-12.46Q468.20-12.46 470.24-12.97L470.24-12.97L470.24-12.97Q472.28-13.48 474.32-14.29L474.32-14.29L474.32-14.29Q474.97-14.56 475.42-14.69L475.42-14.69L475.42-14.69Q475.88-14.82 476.20-14.82L476.20-14.82L476.20-14.82Q476.74-14.82 476.93-14.34L476.93-14.34L476.93-14.34Q477.11-13.86 477.30-12.65L477.30-12.65L477.30-12.65Q477.49-11.44 477.87-9.40L477.87-9.40L477.87-9.40Q478.24-7.36 479.10-4.24L479.10-4.24L479.10-4.24Q479.16-3.97 479.18-3.79L479.18-3.79L479.18-3.79Q479.21-3.60 479.21-3.44L479.21-3.44L479.21-3.44Q479.21-2.69 478.65-2.36L478.65-2.36L478.65-2.36Q478.08-2.04 476.79-1.61L476.79-1.61L476.79-1.61Q474.59-0.86 472.15-0.08L472.15-0.08L472.15-0.08Q469.70 0.70 467.31 1.34L467.31 1.34L467.31 1.34Q464.92 1.99 462.72 2.39L462.72 2.39L462.72 2.39Q460.52 2.79 458.85 2.79L458.85 2.79L458.85 2.79Q449.88 2.79 445.77-1.67L445.77-1.67L445.77-1.67Q441.67-6.12 441.67-15.25L441.67-15.25L441.67-15.25Q441.67-16.81 441.77-18.45L441.77-18.45L441.77-18.45Q441.88-20.09 442.04-21.86L442.04-21.86L442.04-21.86Q442.58-27.23 442.98-32.04L442.98-32.04L442.98-32.04Q443.38-36.85 443.81-41.25L443.81-41.25L438.17-41.25L438.17-41.25Q435.27-41.25 433.98-41.49L433.98-41.49L433.98-41.49Q432.70-41.73 432.70-42.49L432.70-42.49L432.70-42.49Q432.70-42.70 433.23-43.64L433.23-43.64L433.23-43.64Q433.77-44.58 434.60-45.90L434.60-45.90L434.60-45.90Q435.43-47.21 436.40-48.72L436.40-48.72L436.40-48.72Q437.37-50.22 438.25-51.54L438.25-51.54L438.25-51.54Q439.14-52.85 439.79-53.82L439.79-53.82L439.79-53.82Q440.43-54.79 440.59-55L440.59-55L444.40-55L444.40-55Q444.89-59.08 445.18-61.85L445.18-61.85L445.18-61.85Q445.48-64.61 445.67-66.44L445.67-66.44L445.67-66.44Q445.85-68.27 446.02-69.26L446.02-69.26L446.02-69.26Q446.18-70.25 446.36-70.74L446.36-70.74L446.36-70.74Q446.55-71.22 446.85-71.35L446.85-71.35L446.85-71.35Q447.14-71.49 447.63-71.60L447.63-71.60L447.63-71.60Q450.04-72.08 452.30-72.48L452.30-72.48L452.30-72.48Q454.56-72.89 456.81-73.32L456.81-73.32L456.81-73.32Q459.07-73.75 461.40-74.31L461.40-74.31L461.40-74.31Q463.74-74.87 466.26-75.63L466.26-75.63L466.26-75.63Q466.43-75.63 466.48-75.65L466.48-75.65L466.48-75.65Q466.53-75.68 466.69-75.68L466.69-75.68L466.69-75.68Q467.34-75.68 467.34-75.25L467.34-75.25L467.34-75.14L467.34-75.14Q467.07-72.19 466.51-66.92L466.51-66.92L466.51-66.92Q465.94-61.66 465.24-55L465.24-55L479.64-55L479.64-55Q480.07-55 480.47-54.70L480.47-54.70L480.47-54.70Q480.87-54.41 480.87-53.71L480.87-53.71L480.87-53.71Q480.87-53.44 480.23-51.78L480.23-51.78L480.23-51.78Q479.58-50.11 478.40-47.43L478.40-47.43L476.47-43.08L476.47-43.08Q476.09-42.27 475.69-41.89L475.69-41.89L475.69-41.89Q475.29-41.52 474.05-41.41L474.05-41.41Z" fill="#ffffff" id="path19"/>
    </g>
  </g>
  <style id="style25">text {
  font-size: 64px;
  font-family: Arial Black;
  dominant-baseline: central;
  text-anchor: middle;
}</style>
  <g id="g103" transform="matrix(2.1885104,-0.16634859,0.16634859,2.1885104,361.51551,15.5706)">
    <path class="st92" d="M 8.1,23.9 7.5,26.3 5.3,25.8 C 4.7,25.6 4.1,26 4,26.6 L 3.2,29.8 C 3,30.7 3.3,31.6 4,32.2 L 5.7,33.5 5,36.5 2.2,34.4 C 0.8,33.3 0.1,31.5 0.5,29.8 L 1.6,25.3 C 2,23.8 3.5,22.9 5,23.2 Z" id="XMLID_14415_" inkscape:connector-curvature="0" style="fill:#e5feff;stroke:#45413c;stroke-linecap:round;stroke-linejoin:round;stroke-miterlimit:10"/>
    <path inkscape:connector-curvature="0" class="st1" d="M 19.5,41.9 C 19,41.2 18.8,40.3 19,39.5 L 22.6,24.8 8.7,21.4 5.1,36.1 C 4.9,36.9 4.3,37.7 3.5,38 Z" id="use31" style="fill:#ffe500"/>
    <path class="st19" d="m 11.7,40 4.1,-16.8 6.8,1.7 -3.6,14.6 c -0.2,0.8 0,1.7 0.5,2.4 z" id="XMLID_14413_" inkscape:connector-curvature="0" style="fill:#fff48c"/>
    <path inkscape:connector-curvature="0" class="st1" d="M 19.5,41.9 C 19,41.2 18.8,40.3 19,39.5 L 22.6,24.8 8.7,21.4 5.1,36.1 C 4.9,36.9 4.3,37.7 3.5,38 Z" id="XMLID_14412_" style="fill:none;stroke:#45413c;stroke-linecap:round;stroke-linejoin:round;stroke-miterlimit:10"/>
    <circle transform="matrix(0.2368,-0.9716,0.9716,0.2368,-15.3931,41.2885)" class="st2" r="0.80000001" cy="30.4" cx="18.6" id="XMLID_14411_" style="fill:#ebcb00"/>
    <circle transform="rotate(-76.308,9.602046,25.950022)" class="st2" r="0.60000002" cy="26" cx="9.6000004" id="XMLID_14410_" style="fill:#ebcb00"/>
    <path class="Graphic_x0020_Style_x0020_11" d="M 22.1,26.4 H 21.8 C 21.5,26.3 21.2,26.2 21,26 l -0.5,1.9 C 20.4,28.3 20,28.5 19.6,28.4 19.2,28.3 19,27.9 19.1,27.5 l 0.5,-1.9 c -0.3,0 -0.6,0 -0.9,-0.1 -0.2,0 -0.4,-0.1 -0.6,-0.2 L 17.2,29 c -0.2,0.7 -0.9,1.2 -1.6,1 -0.7,-0.2 -1.2,-0.9 -1,-1.6 l 0.8,-3.5 C 14.7,24.7 14,24.3 13.5,23.8 12.9,24 12.3,24.1 11.6,24 10.9,23.8 10.4,23.5 10,23 9.5,23.3 9,23.4 8.4,23.2 8.3,23.2 8.2,23.1 8.1,23.1 l 0.4,-1.7 13.9,3.4 z" id="XMLID_14409_" inkscape:connector-curvature="0" style="opacity:0.15;fill:#45413c"/>
    <path class="st36" d="m 7.3,19.6 c 0.3,-1.1 1.4,-1.8 2.5,-1.5 0.2,0 0.3,0.1 0.5,0.2 0.7,-1 1.9,-1.4 3.1,-1.2 0.2,0 0.4,0.1 0.5,0.2 0.9,-0.9 2.3,-1.3 3.6,-1 1.3,0.3 2.3,1.3 2.7,2.5 0,0 0,0 0,0 1.2,0.3 2.1,1.3 2.2,2.5 0.2,0 0.3,0 0.5,0.1 1.1,0.3 1.8,1.4 1.5,2.5 C 24.1,25 23,25.7 21.9,25.4 21.6,25.3 21.3,25.2 21.1,25 l -0.5,1.9 c -0.1,0.4 -0.5,0.6 -0.9,0.5 -0.4,-0.1 -0.6,-0.5 -0.5,-0.9 l 0.5,-1.9 c -0.3,0 -0.6,0 -0.9,-0.1 -0.2,0 -0.4,-0.1 -0.6,-0.2 l -0.9,3.5 c -0.2,0.7 -0.9,1.2 -1.6,1 -0.7,-0.2 -1.2,-0.9 -1,-1.6 l 0.8,-3.5 C 14.8,23.5 14.1,23.1 13.6,22.6 13,22.8 12.4,22.9 11.7,22.8 11,22.6 10.5,22.3 10.1,21.8 9.6,22.1 9.1,22.2 8.5,22 7.7,21.9 7,20.7 7.3,19.6 Z" id="XMLID_14408_" inkscape:connector-curvature="0" style="fill:#ffffff;stroke:#45413c;stroke-linecap:round;stroke-linejoin:round;stroke-miterlimit:10"/>
    <circle transform="rotate(-76.303,9.1080469,33.888565)" class="st2" r="0.80000001" cy="33.900002" cx="9.1000004" id="XMLID_14407_" style="fill:#ebcb00"/>
    <circle transform="rotate(-76.308,15.229811,37.107055)" class="st2" r="0.60000002" cy="37.099998" cx="15.2" id="XMLID_14406_" style="fill:#ebcb00"/>
    <circle transform="rotate(-76.308,18.690116,33.53712)" class="st2" r="0.60000002" cy="33.5" cx="18.700001" id="XMLID_14405_" style="fill:#ebcb00"/>
    <circle transform="matrix(0.2368,-0.9716,0.9716,0.2368,-19.1408,33.8834)" class="st2" r="0.60000002" cy="29.1" cx="12" id="XMLID_14404_" style="fill:#ebcb00"/>
    <g id="XMLID_14402_">
      <path class="st95" d="m 13.8,32.7 c -0.1,0.6 0.2,1.2 0.8,1.3 0.6,0.1 1.2,-0.2 1.3,-0.8 0.1,-0.4 -0.2,-1.7 -0.4,-2.3 0,-0.1 -0.1,-0.1 -0.2,-0.1 -0.1,0 -0.2,0 -0.2,0.1 -0.3,0.4 -1.2,1.4 -1.3,1.8 z" id="XMLID_14403_" inkscape:connector-curvature="0" style="fill:#ffffff;stroke:#45413c;stroke-miterlimit:10"/>
    </g>
    <path class="st92" d="m 2.1,38.9 c -0.2,0.7 0.2,1.4 0.9,1.5 l 15.9,3.9 c 0.7,0.2 1.3,-0.3 1.5,-0.9 0.2,-0.7 -0.2,-1.4 -0.9,-1.5 L 3.5,38 C 2.9,37.8 2.2,38.3 2.1,38.9 Z" id="XMLID_14401_" inkscape:connector-curvature="0" style="fill:#e5feff;stroke:#45413c;stroke-linecap:round;stroke-linejoin:round;stroke-miterlimit:10"/>
  </g>
</svg>